<?xml version="1.0" encoding="UTF-8"?> <svg xmlns="http://www.w3.org/2000/svg" viewBox="0 0 480 480"><g id="e1749b98-ff75-4e96-a2e5-098b5a775c1f" data-name="Calque 2"><g id="a3f49136-f925-4cfa-8b57-748a3d764c78" data-name="Calque 1"><g id="f6e85d3b-2c99-4186-9f38-be1235dc6438" data-name="Calendar"><path d="M440,48H400V32a32,32,0,0,0-64,0V48H272V32a32,32,0,0,0-64,0V48H144V32a32,32,0,0,0-64,0V48H40A40,40,0,0,0,0,88V408a40,40,0,0,0,40,40H264a8,8,0,0,0,0-16H40a24.07,24.07,0,0,1-24-24V160H464V296a8,8,0,0,0,16,0V88A40,40,0,0,0,440,48ZM352,32a16,16,0,0,1,32,0V80a16,16,0,0,1-32,0ZM224,32a16,16,0,0,1,32,0V80a16,16,0,0,1-32,0ZM96,32a16,16,0,0,1,32,0V80a16,16,0,0,1-32,0ZM464,144H16V88A24.07,24.07,0,0,1,40,64H80V80a32,32,0,0,0,64,0V64h64V80a32,32,0,0,0,64,0V64h64V80a32,32,0,0,0,64,0V64h40a24.07,24.07,0,0,1,24,24Z" style="fill:#c89e4f"></path><path d="M224,216a16,16,0,0,0-16-16H176a16,16,0,0,0-16,16v24a16,16,0,0,0,16,16h32a16,16,0,0,0,16-16Zm-48,24V216h32v24Z" style="fill:#e2b061"></path><path d="M128,216a16,16,0,0,0-16-16H80a16,16,0,0,0-16,16v24a16,16,0,0,0,16,16h32a16,16,0,0,0,16-16ZM80,240V216h32v24Z" style="fill:#e2b061"></path><path d="M400,256a16,16,0,0,0,16-16V216a16,16,0,0,0-16-16H368a16,16,0,0,0-16,16v24a16,16,0,0,0,16,16Zm-32-40h32v24H368Z" style="fill:#e2b061"></path><path d="M224,288a16,16,0,0,0-16-16H176a16,16,0,0,0-16,16v24a16,16,0,0,0,16,16h32a16,16,0,0,0,16-16Zm-48,24V288h32v24Z" style="fill:#e2b061"></path><path d="M128,288a16,16,0,0,0-16-16H80a16,16,0,0,0-16,16v24a16,16,0,0,0,16,16h32a16,16,0,0,0,16-16ZM80,312V288h32v24Z" style="fill:#e2b061"></path><path d="M208,344H176a16,16,0,0,0-16,16v24a16,16,0,0,0,16,16h32a16,16,0,0,0,16-16V360A16,16,0,0,0,208,344Zm-32,40V360h32v24Z" style="fill:#e2b061"></path><path d="M272,256h32a16,16,0,0,0,16-16V216a16,16,0,0,0-16-16H272a16,16,0,0,0-16,16v24A16,16,0,0,0,272,256Zm0-40h32v24H272Z" style="fill:#e2b061"></path><path d="M256,312a16,16,0,0,0,16,16,8,8,0,0,0,0-16V288h32a8,8,0,0,0,0-16H272a16,16,0,0,0-16,16Z" style="fill:#e2b061"></path><path d="M112,344H80a16,16,0,0,0-16,16v24a16,16,0,0,0,16,16h32a16,16,0,0,0,16-16V360A16,16,0,0,0,112,344ZM80,384V360h32v24Z" style="fill:#e2b061"></path><path d="M376,272A104,104,0,1,0,480,376,104,104,0,0,0,376,272Zm0,192a88,88,0,1,1,88-88A88,88,0,0,1,376,464Z" style="fill:#e2b061"></path><path d="M422.22,342.46,360,404.69,331.72,376.4a8,8,0,0,0-11.31,11.31l33.93,34a8,8,0,0,0,11.32,0l67.88-67.88a8,8,0,0,0-11.32-11.32Z" style="fill:#e2b061"></path></g></g></g></svg> 